<?xml version="1.0" encoding="UTF-8" standalone="no"?>
<svg
   xmlns:rdf="http://www.w3.org/1999/02/22-rdf-syntax-ns#"
   xmlns:svg="http://www.w3.org/2000/svg"
   xmlns="http://www.w3.org/2000/svg"
   viewBox="0 0 377.95334 151.18134"
   height="151.18134"
   width="377.95334"
   xml:space="preserve"
   id="svg2"
   version="1.1">
   <g
     transform="matrix(1.3333333,0,0,-1.3333333,0,151.18133)"
     id="g10"><g
       id="g12"><g
         clip-path="url(#clipPath18)"
         id="g14"><g
           transform="translate(35.1343,71.7774)"
           id="g20"><path
             id="path22"
             style="fill:#36b3e5;fill-opacity:1;fill-rule:nonzero;stroke:none"
             d="m 0,0 c -0.37,0 -0.485,0.238 -0.257,0.529 l 2.089,2.665 c 0.228,0.292 0.717,0.53 1.087,0.53 l 35.734,0.017 c 0.37,0 0.509,-0.254 0.31,-0.566 L 37.301,0.583 C 37.102,0.272 36.636,0.017 36.266,0.017 Z" /></g><g
           transform="translate(20.0967,62.5841)"
           id="g24"><path
             id="path26"
             style="fill:#006aa6;fill-opacity:1;fill-rule:nonzero;stroke:none"
             d="m 0,0 c -0.37,0 -0.486,0.237 -0.258,0.528 l 2.09,2.666 c 0.228,0.291 0.717,0.53 1.086,0.53 L 48.553,3.755 C 48.922,3.756 49.13,3.469 49.014,3.118 L 48.206,0.67 C 48.09,0.319 47.692,0.032 47.323,0.031 Z" /></g><g
           transform="translate(44.3257,53.4054)"
           id="g28"><path
             id="path30"
             style="fill:#63bf4a;fill-opacity:1;fill-rule:nonzero;stroke:none"
             d="m 0,0 c -0.37,0 -0.525,0.264 -0.345,0.587 l 1.42,2.549 C 1.254,3.459 1.704,3.724 2.074,3.724 L 22.099,3.74 c 0.37,10e-4 0.643,-0.3 0.608,-0.668 L 22.48,0.687 C 22.445,0.318 22.113,0.017 21.744,0.017 Z" /></g><g
           transform="translate(148.1045,73.546)"
           id="g32"><path
             id="path34"
             style="fill:#63bf4a;fill-opacity:1;fill-rule:nonzero;stroke:none"
             d="m 0,0 c -6.281,-1.552 -10.597,-2.844 -16.775,-4.397 -1.526,-0.383 -1.641,-0.527 -2.924,0.962 -1.505,1.747 -2.573,2.755 -4.692,3.797 -6.3,3.098 -12.411,2.241 -18.053,-1.462 -6.764,-4.438 -10.315,-10.853 -10.23,-19.046 0.083,-8 5.63,-14.621 13.512,-15.719 6.76,-0.943 12.479,1.487 17.024,6.567 0.949,1.062 1.718,2.284 2.74,3.663 h -19.275 c -2.087,0 -2.574,1.279 -1.86,3.003 1.262,3.052 3.7,8.332 5.099,10.918 0.332,0.614 1.018,1.641 2.456,1.641 H 3.441 c -0.177,-2.715 -0.174,-5.439 -0.565,-8.106 -1.059,-7.227 -3.804,-13.811 -8.204,-19.644 -7.172,-9.508 -16.565,-15.414 -28.464,-16.97 -9.782,-1.279 -18.881,0.628 -26.851,6.642 -7.361,5.555 -11.609,13.029 -12.71,22.183 -1.314,10.931 1.865,20.664 8.465,29.294 7.11,9.296 16.47,15.187 28.011,17.28 9.375,1.7 18.356,0.555 26.471,-4.864 C -5.116,12.209 -1.354,7.43 1.175,1.603 1.534,0.775 1.126,0.278 0,0" /></g><g
           transform="translate(191.2842,33.7364)"
           id="g36"><path
             id="path38"
             style="fill:#006aa6;fill-opacity:1;fill-rule:nonzero;stroke:none"
             d="m 0,0 v 3.042 c 0,12.317 3.623,15.456 15.65,15.456 h 11.496 c 8.114,0 12.124,-3.042 12.124,-9.515 h -3.479 c 0,3.767 -2.028,6.038 -8.645,6.038 H 15.167 C 5.651,15.021 3.479,13.234 3.479,3.092 V 0 c 0,-10.386 1.786,-11.931 10.818,-11.931 h 12.849 c 6.472,0 8.694,1.786 8.694,6.037 h 3.477 c 0,-6.28 -3.139,-9.466 -12.026,-9.466 H 14.684 C 3.043,-15.36 0,-12.608 0,0" /></g><g
           transform="translate(185.8555,33.8097)"
           id="g40"><path
             id="path42"
             style="fill:#006aa6;fill-opacity:1;fill-rule:nonzero;stroke:none"
             d="m 0,0 v 2.897 c 0,10.771 -1.4,11.929 -13.477,11.929 h -5.264 c -12.123,0 -13.525,-1.158 -13.525,-11.929 V 0 c 0,-10.676 1.402,-11.835 13.525,-11.835 h 5.264 C -1.4,-11.835 0,-10.676 0,0 m -18.741,-15.361 c -14.104,0 -17.002,2.657 -17.002,15.361 v 2.897 c 0,12.8 2.898,15.457 17.002,15.457 h 5.313 C 0.58,18.354 3.478,15.697 3.478,2.897 V 0 c 0,-12.704 -2.898,-15.361 -16.906,-15.361 z" /></g><g
           transform="translate(233.6904,52.0704)"
           id="g44"><path
             id="path46"
             style="fill:#006aa6;fill-opacity:1;fill-rule:nonzero;stroke:none"
             d="M 0,0 H 29.808 V -3.479 H 3.478 v -11.015 h 25.508 v -3.479 H 3.478 V -33.528 H 0 Z" /></g></g></g></g></svg>